# xmcd CD database file
#
# Track frame offsets:
#	150
#	19930
#	37235
#	56452
#	76255
#	97320
#	114880
#	133637
#	150360
#	170597
#	186210
#
# Disc length: 2858 seconds
#
# Revision: 0
# Processed by: cddbd v1.5.1PL0 Copyright (c) Steve Scherf et al.
# Submitted via: CDex 1.51
#
DISCID=8b0b280b
DTITLE=吉田直樹 - Book
DYEAR=2002
DGENRE=Rock
TTITLE0=風のままに
TTITLE1=ch U -channel U-
TTITLE2=幸せとは
TTITLE3=影と僕
TTITLE4=シネマ
TTITLE5=そんなもんさ
TTITLE6=フルスピード
TTITLE7=砂時計(Album version)
TTITLE8=花
TTITLE9=ベイビー
TTITLE10=Book
EXTD=YEAR: 2002
EXTT0=
EXTT1=
EXTT2=
EXTT3=
EXTT4=
EXTT5=
EXTT6=
EXTT7=
EXTT8=
EXTT9=
EXTT10=
PLAYORDER=
